<?xml version="1.0" standalone="yes"?>
<svg xmlns="http://www.w3.org/2000/svg" width="128" height="142">
<path style="fill:#010101; stroke:none;" d="M0 0L0 45L1 45C3.87926 25.5037 20.5661 12.5871 39 9C36.9098 13.857 36.4705 20.4102 33.1566 24.6103C27.6173 31.6312 20.0532 33.6599 16.4684 43C10.3179 59.0247 20.739 79.4032 38 82L38 97C19.9594 96.1736 3.57798 79.4563 1 62L0 62L0 142L128 142L128 130L127 130C120.581 138.842 115.456 135.465 108 129.873C103.096 126.196 97.4116 122.771 93.5293 117.961C89.5655 113.049 88.0409 106.75 83.8117 102.015C79.625 97.3287 73.7577 95.0577 70 90L47 98C47.7839 93.3884 49.1964 85.9993 52.5602 82.5486C58.2456 76.7163 65.5191 75.8339 70.0448 68C80.7049 49.5475 68.634 24.9432 47 24L47 9C72.643 9.53206 90.7133 33.5239 88.9097 58C88.3512 65.58 84.0536 71.8686 82 79L93.1736 92.1806L109.675 102.309L127 124L128 124L128 0L0 0z"/>
<path style="fill:#ffffff; stroke:none;" d="M38 97L38 82C33.386 80.8939 29.683 78.9475 26.0154 75.9043C13.3938 65.4316 11.5206 47.8566 21.6806 35.0147C25.01 30.8063 30.8186 28.8815 33.7222 24.6103C36.6476 20.3072 37.4282 13.9155 39 9C19.6046 11.5069 3.97223 25.5101 0.464506 45C-3.78244 68.5972 12.1898 96.4502 38 97M47 9L47 24C52.1242 24.4191 56.7632 25.7613 60.9992 28.7894C64.4357 31.2459 67.3374 34.384 69.5208 38C76.6859 49.8663 74.5107 64.0927 64.8264 73.8951C55.8823 82.9482 48.4595 83.3568 47 98L70 90C72.697 95.4835 78.7693 97.6261 82.9059 102.015C87.3578 106.739 88.964 112.86 92.7886 117.961C96.6903 123.164 102.851 126.767 108 130.627C113.183 134.511 118.856 139.455 124.772 133.721C130.482 128.186 126.463 122.131 122.625 117C118.532 111.527 114.314 105.17 108.83 100.989C103.895 97.2261 97.8636 95.6506 93.1736 91.3812C88.9479 87.5344 87.1084 81.6537 82 79C94.3297 49.3459 86.5869 9.81706 47 9z"/>
<path style="fill:#010141; stroke:none;" d="M53 9L54 10L53 9z"/>
<path style="fill:#ffffff; stroke:none;" d="M42 12L27 65L42 59L42 94L43 94L62 36L43 43L42 12z"/>
<path style="fill:#010f01; stroke:none;" d="M21 72L22 73L21 72z"/>
<path style="fill:#550101; stroke:none;" d="M112 104L113 105L112 104z"/>
<path style="fill:#010101; stroke:none;" d="M118 127L118 130L122 129L118 127z"/>
</svg>
